<svg xmlns="http://www.w3.org/2000/svg" fill="none" viewBox="0 0 128 128"><path d="M90.133 106.932L19.058 57.904c-7.203-4.968-4.755-15.313 4.226-17.745l75.541-20.504c6.898-2.486 14.196 2.545 14.327 9.874l-4.477 69.527c-.53 8.252-11.339 12.844-18.542 7.876z" class="prefix__prefix__ccompli2" fill="#E9327C"/><path d="M56.905 110.147L15.033 28.259c-3.999-7.828 1.981-17.051 10.763-16.596.386.02.769.06 1.15.115l77.6 11.973c7.695 1.192 11.97 9.56 8.427 16.49l-35.746 69.91c-4.018 7.82-14.996 8.359-19.758.967a10.342 10.342 0 01-.564-.971z" class="prefix__prefix__ccompli1" fill="#1DACE3"/><path d="M103.089 23.904l-38.683-5.97L16.911 30.83l18.958 37.086L80.261 98.55c.978.67 2.06 1.18 3.194 1.517l16.861-32.973 2.773-43.19z" class="prefix__prefix__ccustom" fill="#001A49"/></svg>