<?xml version="1.0" encoding="utf-8"?>
<svg xmlns="http://www.w3.org/2000/svg" viewBox="2.478 3.382 409.787 199.382" width="409.787px" height="199.382px">
  <rect fill="#ffffff" x="2.478" y="3.382" width="409.787" height="199.382" aria-hidden="true" style=""/>
  <rect fill="none" x="28.958" y="25.812" width="356.83" height="140.564" aria-hidden="true" style=""/>
  <rect fill="none" data-z-index="1" x="28.958" y="25.812" width="356.83" height="140.564" aria-hidden="true" style=""/>
  <g data-z-index="1" aria-hidden="true" transform="matrix(0.6304420232772827, 0, 0, 0.4984550178050995, 2.4755539894104004, 3.391931056976375)" style="">
    <path fill="none" stroke-dasharray="none" data-z-index="1" d="M 135.5 45 L 135.5 327" opacity="1"/>
    <path fill="none" stroke-dasharray="none" data-z-index="1" d="M 230.5 45 L 230.5 327" opacity="1"/>
    <path fill="none" stroke-dasharray="none" data-z-index="1" d="M 324.5 45 L 324.5 327" opacity="1"/>
    <path fill="none" stroke-dasharray="none" data-z-index="1" d="M 418.5 45 L 418.5 327" opacity="1"/>
    <path fill="none" stroke-dasharray="none" data-z-index="1" d="M 513.5 45 L 513.5 327" opacity="1"/>
    <path fill="none" stroke-dasharray="none" data-z-index="1" d="M 607.5 45 L 607.5 327" opacity="1"/>
    <path fill="none" stroke-dasharray="none" data-z-index="1" d="M 41.5 45 L 41.5 327" opacity="1"/>
  </g>
  <g data-z-index="1" aria-hidden="true" transform="matrix(0.6304420232772827, 0, 0, 0.4984550178050995, 2.4755539894104004, 3.391931056976375)" style="">
    <path fill="none" stroke="#e6e6e6" stroke-width="1" stroke-dasharray="none" data-z-index="1" d="M 42 327.5 L 608 327.5" opacity="1"/>
    <path fill="none" stroke="#e6e6e6" stroke-width="1" stroke-dasharray="none" data-z-index="1" d="M 42 257.5 L 608 257.5" opacity="1"/>
    <path fill="none" stroke="#e6e6e6" stroke-width="1" stroke-dasharray="none" data-z-index="1" d="M 42 186.5 L 608 186.5" opacity="1"/>
    <path fill="none" stroke="#e6e6e6" stroke-width="1" stroke-dasharray="none" data-z-index="1" d="M 42 116.5 L 608 116.5" opacity="1"/>
    <path fill="none" stroke="#e6e6e6" stroke-width="1" stroke-dasharray="none" data-z-index="1" d="M 42 44.5 L 608 44.5" opacity="1"/>
  </g>
  <g data-z-index="1" aria-hidden="true" transform="matrix(0.6304420232772827, 0, 0, 0.4984550178050995, 2.4755539894104004, 3.391931056976375)" style="">
    <path fill="none" stroke="#e6e6e6" stroke-width="1" stroke-dasharray="none" data-z-index="1" d="M 42 327.5 L 608 327.5" opacity="1"/>
    <path fill="none" stroke="#e6e6e6" stroke-width="1" stroke-dasharray="none" data-z-index="1" d="M 42 257.5 L 608 257.5" opacity="1"/>
    <path fill="none" stroke="#e6e6e6" stroke-width="1" stroke-dasharray="none" data-z-index="1" d="M 42 186.5 L 608 186.5" opacity="1"/>
    <path fill="none" stroke="#e6e6e6" stroke-width="1" stroke-dasharray="none" data-z-index="1" d="M 42 116.5 L 608 116.5" opacity="1"/>
    <path fill="none" stroke="#e6e6e6" stroke-width="1" stroke-dasharray="none" data-z-index="1" d="M 42 44.5 L 608 44.5" opacity="1"/>
  </g>
  <g data-z-index="2" aria-hidden="true" transform="matrix(0.6304410099983215, 0, 0, 0.4984530210494995, 2.4756150245666504, 3.391747951507625)" style="">
    <path fill="none" stroke="#ccd6eb" stroke-width="1" data-z-index="7" d="M 42 327.5 L 608 327.5"/>
  </g>
  <g data-z-index="2" aria-hidden="true" transform="matrix(0.6304439902305603, 0, 0, 0.4984550178050995, 2.475584030151367, 3.391931056976375)" style="">
    <path fill="none" data-z-index="7" d="M 42 45 L 42 327"/>
  </g>
  <g data-z-index="2" aria-hidden="true" transform="matrix(0.6304479837417603, 0, 0.000004000000444648322, 0.4984540045261383, 2.475630044937134, 3.3921139240264893)" style="">
    <path fill="none" data-z-index="7" d="M 608 45 L 608 327"/>
  </g>
  <g data-z-index="3" aria-hidden="false" transform="matrix(0.6304420232772827, 0, 0, 0.4984550178050995, 2.4755539894104004, 3.391931056976375)" style="">
    <g data-z-index="0.1" opacity="1" transform="translate(42,45) scale(1 1)" clip-path="url(#highcharts-06xcfp2-8-)" style="cursor: pointer; outline: none;" aria-hidden="false" role="region" tabindex="-1" aria-label="Item 1, series 1 of 3. Bar series with 6 bars. Y axis, values.">
      <rect x="30" y="130" width="34" height="109" fill="#6f58e9" opacity="1" tabindex="-1" role="img" aria-label="Category 1, 62. Item 1." style="outline: none;"/>
      <rect x="125" y="34" width="34" height="85" fill="#6f58e9" opacity="1" tabindex="-1" role="img" aria-label="Category 2, 48. Item 1." style="outline: none;"/>
      <rect x="219" y="72" width="34" height="77" fill="#6f58e9" opacity="1" tabindex="-1" role="img" aria-label="Category 3, 44. Item 1." style="outline: none;"/>
      <rect x="313" y="15" width="34" height="160" fill="rgb(111,88,233)" opacity="1" tabindex="-1" role="img" aria-label="Category 4, 91. Item 1." style="outline: none;"/>
      <rect x="408" y="105" width="34" height="83" fill="rgb(111,88,233)" opacity="1" tabindex="-1" role="img" aria-label="Category 5, 47. Item 1." style="outline: none;"/>
      <rect x="502" y="119" width="34" height="99" fill="rgb(111,88,233)" opacity="1" tabindex="-1" role="img" aria-label="Category 6, 56. Item 1." style="outline: none;"/>
    </g>
    <g data-z-index="0.1" opacity="1" transform="translate(42,45) scale(1 1)" clip-path="none" aria-hidden="true"/>
    <g data-z-index="0.1" opacity="1" transform="translate(42,45) scale(1 1)" clip-path="url(#highcharts-06xcfp2-8-)" style="cursor: pointer; outline: none;" aria-hidden="false" role="region" tabindex="-1" aria-label="Item 2, series 2 of 3. Bar series with 6 bars. Y axis, values.">
      <rect x="30" y="239" width="34" height="44" fill="#94d13d" opacity="1" tabindex="-1" role="img" aria-label="Category 1, 25. Item 2." style="outline: none;"/>
      <rect x="125" y="119" width="34" height="164" fill="#94d13d" opacity="1" tabindex="-1" role="img" aria-label="Category 2, 93. Item 2." style="outline: none;"/>
      <rect x="219" y="149" width="34" height="134" fill="#94d13d" opacity="1" tabindex="-1" role="img" aria-label="Category 3, 76. Item 2." style="outline: none;"/>
      <rect x="313" y="175" width="34" height="108" fill="#94d13d" opacity="1" tabindex="-1" role="img" aria-label="Category 4, 61. Item 2." style="outline: none;"/>
      <rect x="408" y="188" width="34" height="95" fill="#94d13d" opacity="1" tabindex="-1" role="img" aria-label="Category 5, 54. Item 2." style="outline: none;"/>
      <rect x="502" y="218" width="34" height="65" fill="#94d13d" opacity="1" tabindex="-1" role="img" aria-label="Category 6, 37. Item 2." style="outline: none;"/>
    </g>
    <g data-z-index="0.1" opacity="1" transform="translate(42,45) scale(1 1)" clip-path="none" aria-hidden="true"/>
    <g data-z-index="0.1" opacity="1" transform="translate(42,45) scale(1 1)" clip-path="url(#highcharts-06xcfp2-24-)" aria-hidden="true">
      <path fill="none" d="M 47.166666666667 239.7 C 47.166666666667 239.7 103.7666666666668 225.1299999999995 141.5 211.5 C 179.233333333336 197.8699999999995 198.100000000004 202.57000000000167 235.83333333334 171.55 C 273.56666666667195 140.53000000000165 292.433333333338 56.400000000000006 330.16666666667 56.400000000000006 C 367.900000000002 56.400000000000006 386.76666666666796 235 424.5 235 C 462.23333333333596 235 518.83333333334 86.94999999999999 518.83333333334 86.94999999999999" data-z-index="1" stroke="#eb6dc0" stroke-width="2" stroke-linejoin="round" stroke-linecap="round"/>
      <path fill="none" d="M 47.166666666667 239.7 C 47.166666666667 239.7 103.7666666666668 225.1299999999995 141.5 211.5 C 179.233333333336 197.8699999999995 198.100000000004 202.57000000000167 235.83333333334 171.55 C 273.56666666667195 140.53000000000165 292.433333333338 56.400000000000006 330.16666666667 56.400000000000006 C 367.900000000002 56.400000000000006 386.76666666666796 235 424.5 235 C 462.23333333333596 235 518.83333333334 86.94999999999999 518.83333333334 86.94999999999999" data-z-index="2" stroke-linecap="round" stroke-linejoin="round" stroke="rgba(192,192,192,0.0001)" stroke-width="22" style="cursor: pointer;"/>
    </g>
    <g data-z-index="0.1" opacity="1" transform="translate(42,45) scale(1 1)" clip-path="none" style="cursor: pointer; outline: none;" aria-hidden="false" role="region" tabindex="-1" aria-label="Line 1, series 3 of 3. Line with 6 data points. Y axis, values.">
      <path fill="#eb6dc0" d="M 518 86.94999999999999 A 0 0 0 1 1 518 86.94999999999999 Z" data-z-index="-1" fill-opacity="0.25" visibility="hidden"/>
      <path fill="#eb6dc0" d="M 47 243.7 A 4 4 0 1 1 47.00399999933334 243.69999800000016 Z" opacity="1" tabindex="-1" role="img" aria-label="Category 1, 18. Line 1." style="outline: none;"/>
      <path fill="#eb6dc0" d="M 141 215.5 A 4 4 0 1 1 141.00399999933333 215.49999800000018 Z" opacity="1" tabindex="-1" role="img" aria-label="Category 2, 30. Line 1." style="outline: none;"/>
      <path fill="#eb6dc0" d="M 235 175.55 A 4 4 0 1 1 235.00399999933333 175.5499980000002 Z" opacity="1" tabindex="-1" role="img" aria-label="Category 3, 47. Line 1." style="outline: none;"/>
      <path fill="#eb6dc0" d="M 330 60.400000000000006 A 4 4 0 1 1 330.00399999933336 60.399998000000174 Z" opacity="1" tabindex="-1" role="img" aria-label="Category 4, 96. Line 1." style="outline: none;" stroke-width="3.496310553297022e-7"/>
      <path fill="#eb6dc0" d="M 424 239 A 4 4 0 1 1 424.00399999933336 238.99999800000018 Z" opacity="1" tabindex="-1" role="img" aria-label="Category 5, 20. Line 1." style="outline: none;" stroke-width="0.000002409619786869488"/>
      <path fill="#eb6dc0" d="M 518 90.94999999999999 A 4 4 0 1 1 518.0039999993334 90.94999800000015 Z" opacity="1" tabindex="-1" role="img" aria-label="Category 6, 83. Line 1." style="outline: none;" stroke-width="0.00003947789809188862"/>
    </g>
  </g>
  <g data-z-index="3" aria-hidden="true" transform="matrix(0.6304420232772827, 0, 0, 0.4984550178050995, 2.4755539894104004, 3.391931056976375)" style="">
    <g stroke-linecap="round" style="cursor: pointer;" transform="translate(616,10)">
      <title>Chart context menu</title>
      <rect fill="#ffffff" x="0.5" y="0.5" width="24" height="22" rx="2" ry="2" stroke="none" stroke-width="1"/>
      <path fill="#666666" d="M 6 6.5 L 20 6.5 M 6 11.5 L 20 11.5 M 6 16.5 L 20 16.5" data-z-index="1" stroke="#666666" stroke-width="3"/>
      <text font-family="Roboto-Regular,Roboto" x="0" data-z-index="1" y="15.5" style="color: rgb(51, 51, 51); font-weight: normal; fill: rgb(51, 51, 51); white-space: pre;"/>
    </g>
  </g>
  <text font-family="Roboto-Regular,Roboto" x="1704.38" text-anchor="middle" data-z-index="4" style="color: rgb(51, 51, 51); font-size: 18px; fill: rgb(51, 51, 51); white-space: pre;" y="-290.02" aria-hidden="true" transform="matrix(0.6304420232772827, 0, 0, 0.4984550178050995, -867.142822265625, 159.91810607910156)">Chart title</text>
  <g data-z-index="7" aria-hidden="true" transform="matrix(0.6304420232772827, 0, 0, 0.4984550178050995, 138.02067565917974, 182.3373260498047)" style="">
    <rect fill="none" rx="0" ry="0" x="0" y="0" width="220" height="26"/>
    <g data-z-index="1">
      <g>
        <g data-z-index="1" transform="translate(8,3)">
          <text font-family="Roboto-Regular,Roboto" x="21" text-anchor="start" data-z-index="2" y="15" style="color: rgb(51, 51, 51); cursor: pointer; font-size: 12px; font-weight: bold; fill: rgb(51, 51, 51); white-space: pre;">Item 1</text>
          <rect x="2" y="4" width="12" height="12" fill="#6f58e9" rx="6" ry="6" data-z-index="3"/>
        </g>
        <g data-z-index="1" transform="translate(83,3)">
          <text font-family="Roboto-Regular,Roboto" x="21" y="15" text-anchor="start" data-z-index="2" style="color: rgb(51, 51, 51); cursor: pointer; font-size: 12px; font-weight: bold; fill: rgb(51, 51, 51); white-space: pre;">Item 2</text>
          <rect x="2" y="4" width="12" height="12" fill="#94d13d" rx="6" ry="6" data-z-index="3"/>
        </g>
        <g data-z-index="1" transform="translate(158,3)">
          <path fill="none" d="M 0 11 L 16 11" stroke="#eb6dc0" stroke-width="2"/>
          <path fill="#eb6dc0" d="M 8 15 A 4 4 0 1 1 8.003999999333336 14.999998000000167 Z" opacity="1"/>
          <text font-family="Roboto-Regular,Roboto" x="21" y="15" text-anchor="start" data-z-index="2" style="color: rgb(51, 51, 51); cursor: pointer; font-size: 12px; font-weight: bold; fill: rgb(51, 51, 51); white-space: pre;">Line 1</text>
        </g>
      </g>
    </g>
  </g>
  <g data-z-index="7" aria-hidden="true" transform="matrix(0.6304420232772827, 0, 0, 0.4984550178050995, 2.4755539894104004, 3.391931056976375)" style="">
    <text font-family="Roboto-Regular,Roboto" x="89.16666666666333" style="color: rgb(102, 102, 102); cursor: default; font-size: 11px; fill: rgb(102, 102, 102); white-space: pre;" text-anchor="middle" transform="translate(0,0)" y="346" opacity="1">Category 1</text>
    <text font-family="Roboto-Regular,Roboto" x="183.50000000000335" text-anchor="middle" transform="translate(0,0)" style="color: rgb(102, 102, 102); cursor: default; font-size: 11px; fill: rgb(102, 102, 102); white-space: pre;" y="346" opacity="1">Category 2</text>
    <text font-family="Roboto-Regular,Roboto" x="277.8333333333333" text-anchor="middle" transform="translate(0,0)" style="color: rgb(102, 102, 102); cursor: default; font-size: 11px; fill: rgb(102, 102, 102); white-space: pre;" y="346" opacity="1">Category 3</text>
    <text font-family="Roboto-Regular,Roboto" x="372.16666666667334" text-anchor="middle" transform="translate(0,0)" style="color: rgb(102, 102, 102); cursor: default; font-size: 11px; fill: rgb(102, 102, 102); white-space: pre;" y="346" opacity="1">Category 4</text>
    <text font-family="Roboto-Regular,Roboto" x="466.50000000000335" text-anchor="middle" transform="translate(0,0)" style="color: rgb(102, 102, 102); cursor: default; font-size: 11px; fill: rgb(102, 102, 102); white-space: pre;" y="346" opacity="1">Category 5</text>
    <text font-family="Roboto-Regular,Roboto" x="560.8333333333334" text-anchor="middle" transform="translate(0,0)" style="color: rgb(102, 102, 102); cursor: default; font-size: 11px; fill: rgb(102, 102, 102); white-space: pre;" y="346" opacity="1">Category 6</text>
  </g>
  <g data-z-index="7" aria-hidden="true" transform="matrix(0.6304420232772827, 0, 0, 0.4984550178050995, 2.4755539894104004, 3.391931056976375)" style="">
    <text font-family="Roboto-Regular,Roboto" x="27" text-anchor="end" transform="translate(0,0)" style="color: rgb(102, 102, 102); cursor: default; font-size: 11px; fill: rgb(102, 102, 102); white-space: pre;" y="332" opacity="1">0</text>
    <text font-family="Roboto-Regular,Roboto" x="27" text-anchor="end" transform="translate(0,0)" style="color: rgb(102, 102, 102); cursor: default; font-size: 11px; fill: rgb(102, 102, 102); white-space: pre;" y="262" opacity="1">30</text>
    <text font-family="Roboto-Regular,Roboto" x="27" text-anchor="end" transform="translate(0,0)" style="color: rgb(102, 102, 102); cursor: default; font-size: 11px; fill: rgb(102, 102, 102); white-space: pre;" y="191" opacity="1">60</text>
    <text font-family="Roboto-Regular,Roboto" x="27" text-anchor="end" transform="translate(0,0)" style="color: rgb(102, 102, 102); cursor: default; font-size: 11px; fill: rgb(102, 102, 102); white-space: pre;" y="121" opacity="1">90</text>
    <text font-family="Roboto-Regular,Roboto" x="27" text-anchor="end" transform="translate(0,0)" style="color: rgb(102, 102, 102); cursor: default; font-size: 11px; fill: rgb(102, 102, 102); white-space: pre;" y="50" opacity="1">120</text>
  </g>
  <g data-z-index="7" aria-hidden="true" transform="matrix(0.6304420232772827, 0, 0, 0.4984550178050995, 2.4755539894104004, 3.391931056976375)" style="">
    <text font-family="Roboto-Regular,Roboto" x="623" style="color: rgb(102, 102, 102); cursor: default; font-size: 11px; fill: rgb(102, 102, 102); white-space: pre;" text-anchor="start" transform="translate(0,0)" y="332" opacity="1">0</text>
    <text font-family="Roboto-Regular,Roboto" x="623" style="color: rgb(102, 102, 102); cursor: default; font-size: 11px; fill: rgb(102, 102, 102); white-space: pre;" text-anchor="start" transform="translate(0,0)" y="262" opacity="1">40</text>
    <text font-family="Roboto-Regular,Roboto" x="623" style="color: rgb(102, 102, 102); cursor: default; font-size: 11px; fill: rgb(102, 102, 102); white-space: pre;" text-anchor="start" transform="translate(0,0)" y="191" opacity="1">80</text>
    <text font-family="Roboto-Regular,Roboto" x="623" text-anchor="start" transform="translate(0,0)" y="121" opacity="1" style="color: rgb(102, 102, 102); cursor: default; font-size: 11px; fill: rgb(102, 102, 102); white-space: pre;">120</text>
    <text font-family="Roboto-Regular,Roboto" x="623" text-anchor="start" transform="translate(0,0)" y="50" opacity="1" style="color: rgb(102, 102, 102); cursor: default; font-size: 11px; fill: rgb(102, 102, 102); white-space: pre;">160</text>
  </g>
</svg>