<?xml version="1.0" encoding="utf-8"?>
<svg width="52" height="24" viewBox="0 0 52 24" fill="none" xmlns="http://www.w3.org/2000/svg">
  <g>
    <path d="M3.492 11.724Q2.52 11.724 1.83 11.328Q1.14 10.932 0.78 10.206Q0.42 9.48 0.42 8.496Q0.42 7.5 0.792 6.762Q1.164 6.024 1.866 5.616Q2.568 5.208 3.564 5.208Q4.332 5.208 4.932 5.484Q5.532 5.76 5.898 6.276Q6.264 6.792 6.324 7.548L4.68 7.548Q4.572 7.128 4.266 6.936Q3.96 6.744 3.54 6.744Q3 6.744 2.682 7.008Q2.364 7.272 2.226 7.68Q2.088 8.088 2.088 8.496Q2.088 8.94 2.232 9.33Q2.376 9.72 2.694 9.966Q3.012 10.212 3.528 10.212Q3.96 10.212 4.284 10.014Q4.608 9.816 4.704 9.396L6.384 9.396Q6.324 10.176 5.916 10.692Q5.508 11.208 4.878 11.466Q4.248 11.724 3.492 11.724ZM10.356 11.724Q9.396 11.724 8.676 11.334Q7.956 10.944 7.56 10.218Q7.164 9.492 7.164 8.496Q7.164 7.476 7.566 6.738Q7.968 6 8.688 5.604Q9.408 5.208 10.344 5.208Q11.304 5.208 12.012 5.616Q12.72 6.024 13.116 6.756Q13.512 7.488 13.512 8.508Q13.512 9.504 13.122 10.23Q12.732 10.956 12.03 11.34Q11.328 11.724 10.356 11.724ZM10.332 10.188Q10.884 10.188 11.22 9.948Q11.556 9.708 11.706 9.318Q11.856 8.928 11.856 8.496Q11.856 8.064 11.706 7.668Q11.556 7.272 11.226 7.014Q10.896 6.756 10.332 6.756Q9.792 6.756 9.456 7.014Q9.12 7.272 8.97 7.668Q8.82 8.064 8.82 8.496Q8.82 8.94 8.97 9.324Q9.12 9.708 9.456 9.948Q9.792 10.188 10.332 10.188ZM14.592 11.64L14.592 5.316L16.272 5.316L16.272 11.64L14.592 11.64ZM15.432 4.68Q14.964 4.68 14.676 4.398Q14.388 4.116 14.388 3.672Q14.388 3.204 14.688 2.916Q14.988 2.628 15.444 2.628Q15.864 2.628 16.17 2.91Q16.476 3.192 16.476 3.66Q16.476 4.116 16.182 4.398Q15.888 4.68 15.432 4.68ZM17.604 11.64L17.604 5.316L19.176 5.316L19.26 6.048Q19.524 5.724 19.866 5.538Q20.208 5.352 20.562 5.28Q20.916 5.208 21.204 5.208Q22.116 5.208 22.626 5.604Q23.136 6 23.358 6.666Q23.58 7.332 23.58 8.148L23.58 11.64L21.9 11.64L21.9 8.364Q21.9 8.076 21.852 7.788Q21.804 7.5 21.678 7.26Q21.552 7.02 21.324 6.876Q21.096 6.732 20.724 6.732Q20.244 6.732 19.92 6.972Q19.596 7.212 19.44 7.62Q19.284 8.028 19.284 8.52L19.284 11.64L17.604 11.64ZM28.464 11.724Q28.152 11.724 27.81 11.664Q27.468 11.604 27.138 11.43Q26.808 11.256 26.52 10.932L26.508 11.64L24.864 11.64L24.864 3.144L26.544 3.144L26.544 6.06Q26.904 5.628 27.438 5.418Q27.972 5.208 28.548 5.208Q29.484 5.208 30.084 5.634Q30.684 6.06 30.978 6.792Q31.272 7.524 31.272 8.472Q31.272 9.396 30.972 10.134Q30.672 10.872 30.054 11.298Q29.436 11.724 28.464 11.724ZM28.104 10.224Q28.692 10.224 29.016 9.96Q29.34 9.696 29.472 9.288Q29.604 8.88 29.604 8.436Q29.604 7.992 29.46 7.602Q29.316 7.212 28.986 6.978Q28.656 6.744 28.104 6.744Q27.6 6.744 27.246 6.99Q26.892 7.236 26.712 7.632Q26.532 8.028 26.532 8.484Q26.532 8.94 26.694 9.342Q26.856 9.744 27.204 9.984Q27.552 10.224 28.104 10.224ZM34.356 11.724Q33.924 11.724 33.522 11.61Q33.12 11.496 32.808 11.256Q32.496 11.016 32.316 10.656Q32.136 10.296 32.136 9.816Q32.136 9.168 32.4 8.778Q32.664 8.388 33.108 8.184Q33.552 7.98 34.134 7.908Q34.716 7.836 35.34 7.836L36.252 7.836Q36.252 7.488 36.126 7.218Q36 6.948 35.748 6.798Q35.496 6.648 35.1 6.648Q34.848 6.648 34.614 6.714Q34.38 6.78 34.224 6.9Q34.068 7.02 34.02 7.212L32.316 7.212Q32.388 6.684 32.652 6.306Q32.916 5.928 33.312 5.688Q33.708 5.448 34.182 5.334Q34.656 5.22 35.16 5.22Q36.54 5.22 37.2 6.006Q37.86 6.792 37.86 8.232L37.86 11.64L36.348 11.64L36.324 10.824Q36.024 11.244 35.646 11.436C35.394 11.564 35.152 11.644 34.92 11.676Q34.572 11.724 34.356 11.724ZM34.74 10.392Q35.16 10.392 35.508 10.224Q35.856 10.056 36.06 9.768Q36.264 9.48 36.264 9.12L36.264 8.964L35.112 8.964Q34.86 8.964 34.626 8.988Q34.392 9.012 34.206 9.078Q34.02 9.144 33.912 9.288Q33.804 9.432 33.804 9.672Q33.804 9.912 33.93 10.074Q34.056 10.236 34.272 10.314Q34.488 10.392 34.74 10.392ZM41.64 11.724Q41.196 11.724 40.728 11.628Q40.26 11.532 39.864 11.298Q39.468 11.064 39.192 10.662Q38.916 10.26 38.832 9.66L40.536 9.66Q40.608 9.876 40.794 10.032Q40.98 10.188 41.226 10.26Q41.472 10.332 41.724 10.332Q41.892 10.332 42.06 10.308Q42.228 10.284 42.372 10.212Q42.516 10.14 42.6 10.026Q42.684 9.912 42.684 9.732Q42.684 9.54 42.564 9.432Q42.444 9.324 42.228 9.258Q42.012 9.192 41.736 9.132Q41.244 9.024 40.68 8.892Q40.116 8.76 39.708 8.508Q39.54 8.388 39.408 8.244Q39.276 8.1 39.192 7.92Q39.108 7.74 39.06 7.542Q39.012 7.344 39.012 7.116Q39.012 6.6 39.234 6.234Q39.456 5.868 39.828 5.64Q40.2 5.412 40.656 5.31Q41.112 5.208 41.592 5.208Q42.24 5.208 42.792 5.418Q43.344 5.628 43.704 6.066Q44.064 6.504 44.148 7.2L42.54 7.2Q42.492 6.936 42.216 6.774Q41.94 6.612 41.532 6.612Q41.388 6.612 41.226 6.636Q41.064 6.66 40.932 6.72Q40.8 6.78 40.716 6.882Q40.632 6.984 40.632 7.152Q40.632 7.284 40.71 7.392Q40.788 7.5 40.938 7.572Q41.088 7.644 41.304 7.704Q41.712 7.8 42.126 7.878Q42.54 7.956 42.864 8.04Q43.26 8.124 43.59 8.316Q43.92 8.508 44.13 8.838Q44.34 9.168 44.34 9.696Q44.34 10.296 44.1 10.686Q43.86 11.076 43.458 11.304Q43.056 11.532 42.582 11.628Q42.108 11.724 41.64 11.724ZM48.216 11.724Q47.22 11.724 46.524 11.328Q45.828 10.932 45.456 10.206Q45.084 9.48 45.084 8.508Q45.084 7.524 45.468 6.786Q45.852 6.048 46.554 5.628Q47.256 5.208 48.216 5.208Q48.936 5.208 49.482 5.448Q50.028 5.688 50.406 6.12Q50.784 6.552 50.97 7.122Q51.156 7.692 51.144 8.352Q51.144 8.52 51.132 8.676Q51.12 8.832 51.084 8.988L46.752 8.988Q46.788 9.348 46.956 9.648Q47.124 9.948 47.43 10.122Q47.736 10.296 48.192 10.296Q48.492 10.296 48.744 10.23Q48.996 10.164 49.176 10.02Q49.356 9.876 49.428 9.684L51.084 9.684Q50.928 10.392 50.502 10.848Q50.076 11.304 49.476 11.514Q48.876 11.724 48.216 11.724ZM46.788 7.812L49.536 7.812Q49.524 7.488 49.374 7.206Q49.224 6.924 48.93 6.75Q48.636 6.576 48.18 6.576Q47.724 6.576 47.418 6.756Q47.112 6.936 46.962 7.218Q46.812 7.5 46.788 7.812Z" fill="#023347" transform="translate(0 4)" />
  </g>
</svg>