<?xml version="1.0" encoding="utf-8"?>
<svg width="52" height="24" viewBox="0 0 52 24" fill="none" xmlns="http://www.w3.org/2000/svg">
  <g>
    <path d="M0.66 11.64L0.66 5.316L2.34 5.316L2.34 11.64L0.66 11.64ZM1.5 4.68Q1.032 4.68 0.744 4.398Q0.456 4.116 0.456 3.672Q0.456 3.204 0.756 2.916Q1.056 2.628 1.512 2.628Q1.932 2.628 2.238 2.91Q2.544 3.192 2.544 3.66Q2.544 4.116 2.25 4.398Q1.956 4.68 1.5 4.68ZM3.672 11.64L3.672 5.316L5.244 5.316L5.328 6.048Q5.592 5.724 5.934 5.538Q6.276 5.352 6.63 5.28Q6.984 5.208 7.272 5.208Q8.184 5.208 8.694 5.604Q9.204 6 9.426 6.666Q9.648 7.332 9.648 8.148L9.648 11.64L7.968 11.64L7.968 8.364Q7.968 8.076 7.92 7.788Q7.872 7.5 7.746 7.26Q7.62 7.02 7.392 6.876Q7.164 6.732 6.792 6.732Q6.312 6.732 5.988 6.972Q5.664 7.212 5.508 7.62Q5.352 8.028 5.352 8.52L5.352 11.64L3.672 11.64ZM13.404 11.724Q12.96 11.724 12.492 11.628Q12.024 11.532 11.628 11.298Q11.232 11.064 10.956 10.662Q10.68 10.26 10.596 9.66L12.3 9.66Q12.372 9.876 12.558 10.032Q12.744 10.188 12.99 10.26Q13.236 10.332 13.488 10.332Q13.656 10.332 13.824 10.308Q13.992 10.284 14.136 10.212Q14.28 10.14 14.364 10.026Q14.448 9.912 14.448 9.732Q14.448 9.54 14.328 9.432Q14.208 9.324 13.992 9.258Q13.776 9.192 13.5 9.132Q13.008 9.024 12.444 8.892Q11.88 8.76 11.472 8.508Q11.304 8.388 11.172 8.244Q11.04 8.1 10.956 7.92Q10.872 7.74 10.824 7.542Q10.776 7.344 10.776 7.116Q10.776 6.6 10.998 6.234Q11.22 5.868 11.592 5.64Q11.964 5.412 12.42 5.31Q12.876 5.208 13.356 5.208Q14.004 5.208 14.556 5.418Q15.108 5.628 15.468 6.066Q15.828 6.504 15.912 7.2L14.304 7.2Q14.256 6.936 13.98 6.774Q13.704 6.612 13.296 6.612Q13.152 6.612 12.99 6.636Q12.828 6.66 12.696 6.72Q12.564 6.78 12.48 6.882Q12.396 6.984 12.396 7.152Q12.396 7.284 12.474 7.392Q12.552 7.5 12.702 7.572Q12.852 7.644 13.068 7.704Q13.476 7.8 13.89 7.878Q14.304 7.956 14.628 8.04Q15.024 8.124 15.354 8.316Q15.684 8.508 15.894 8.838Q16.104 9.168 16.104 9.696Q16.104 10.296 15.864 10.686Q15.624 11.076 15.222 11.304Q14.82 11.532 14.346 11.628Q13.872 11.724 13.404 11.724ZM19.668 11.724Q18.6 11.724 18.09 11.124Q17.58 10.524 17.58 9.48L17.58 6.816L16.632 6.816L16.632 5.316L17.58 5.316L17.58 3.612L19.26 3.612L19.26 5.316L21.18 5.316L21.18 6.816L19.26 6.816L19.26 9.132Q19.26 9.444 19.338 9.672Q19.416 9.9 19.602 10.026Q19.788 10.152 20.112 10.152Q20.4 10.152 20.598 10.062Q20.796 9.972 20.928 9.864L21.456 11.16Q21.204 11.364 20.898 11.49Q20.592 11.616 20.28 11.67Q19.968 11.724 19.668 11.724ZM24.156 11.724Q23.724 11.724 23.322 11.61Q22.92 11.496 22.608 11.256Q22.296 11.016 22.116 10.656Q21.936 10.296 21.936 9.816Q21.936 9.168 22.2 8.778Q22.464 8.388 22.908 8.184Q23.352 7.98 23.934 7.908Q24.516 7.836 25.14 7.836L26.052 7.836Q26.052 7.488 25.926 7.218Q25.8 6.948 25.548 6.798Q25.296 6.648 24.9 6.648Q24.648 6.648 24.414 6.714Q24.18 6.78 24.024 6.9Q23.868 7.02 23.82 7.212L22.116 7.212Q22.188 6.684 22.452 6.306Q22.716 5.928 23.112 5.688Q23.508 5.448 23.982 5.334Q24.456 5.22 24.96 5.22Q26.34 5.22 27 6.006Q27.66 6.792 27.66 8.232L27.66 11.64L26.148 11.64L26.124 10.824Q25.824 11.244 25.446 11.436C25.194 11.564 24.952 11.644 24.72 11.676Q24.372 11.724 24.156 11.724ZM24.54 10.392Q24.96 10.392 25.308 10.224Q25.656 10.056 25.86 9.768Q26.064 9.48 26.064 9.12L26.064 8.964L24.912 8.964Q24.66 8.964 24.426 8.988Q24.192 9.012 24.006 9.078Q23.82 9.144 23.712 9.288Q23.604 9.432 23.604 9.672Q23.604 9.912 23.73 10.074Q23.856 10.236 24.072 10.314Q24.288 10.392 24.54 10.392ZM31.8 11.724Q30.828 11.724 30.138 11.328Q29.448 10.932 29.088 10.206Q28.728 9.48 28.728 8.496Q28.728 7.5 29.1 6.762Q29.472 6.024 30.174 5.616Q30.876 5.208 31.872 5.208Q32.64 5.208 33.24 5.484Q33.84 5.76 34.206 6.276Q34.572 6.792 34.632 7.548L32.988 7.548Q32.88 7.128 32.574 6.936Q32.268 6.744 31.848 6.744Q31.308 6.744 30.99 7.008Q30.672 7.272 30.534 7.68Q30.396 8.088 30.396 8.496Q30.396 8.94 30.54 9.33Q30.684 9.72 31.002 9.966Q31.32 10.212 31.836 10.212Q32.268 10.212 32.592 10.014Q32.916 9.816 33.012 9.396L34.692 9.396Q34.632 10.176 34.224 10.692Q33.816 11.208 33.186 11.466Q32.556 11.724 31.8 11.724ZM37.716 11.724Q37.284 11.724 36.882 11.61Q36.48 11.496 36.168 11.256Q35.856 11.016 35.676 10.656Q35.496 10.296 35.496 9.816Q35.496 9.168 35.76 8.778Q36.024 8.388 36.468 8.184Q36.912 7.98 37.494 7.908Q38.076 7.836 38.7 7.836L39.612 7.836Q39.612 7.488 39.486 7.218Q39.36 6.948 39.108 6.798Q38.856 6.648 38.46 6.648Q38.208 6.648 37.974 6.714Q37.74 6.78 37.584 6.9Q37.428 7.02 37.38 7.212L35.676 7.212Q35.748 6.684 36.012 6.306Q36.276 5.928 36.672 5.688Q37.068 5.448 37.542 5.334Q38.016 5.22 38.52 5.22Q39.9 5.22 40.56 6.006Q41.22 6.792 41.22 8.232L41.22 11.64L39.708 11.64L39.684 10.824Q39.384 11.244 39.006 11.436C38.754 11.564 38.512 11.644 38.28 11.676Q37.932 11.724 37.716 11.724ZM38.1 10.392Q38.52 10.392 38.868 10.224Q39.216 10.056 39.42 9.768Q39.624 9.48 39.624 9.12L39.624 8.964L38.472 8.964Q38.22 8.964 37.986 8.988Q37.752 9.012 37.566 9.078Q37.38 9.144 37.272 9.288Q37.164 9.432 37.164 9.672Q37.164 9.912 37.29 10.074Q37.416 10.236 37.632 10.314Q37.848 10.392 38.1 10.392ZM42.528 11.64L42.528 5.316L44.04 5.316L44.148 6.072Q44.388 5.712 44.688 5.526Q44.988 5.34 45.312 5.274Q45.636 5.208 45.972 5.208Q46.128 5.208 46.26 5.214Q46.392 5.22 46.452 5.22L46.452 6.84L46.056 6.84Q45.492 6.84 45.072 7.032Q44.652 7.224 44.43 7.632Q44.208 8.04 44.208 8.676L44.208 11.64L42.528 11.64ZM50.472 11.64C49.944 11.64 49.502 11.576 49.146 11.448Q48.612 11.256 48.342 10.794Q48.072 10.332 48.072 9.528L48.072 6.816L47.136 6.816L47.136 5.316L48.072 5.316L48.072 3.624L49.752 3.624L49.752 5.316L51.132 5.316L51.132 6.816L49.752 6.816L49.752 9.288Q49.752 9.684 49.896 9.912Q50.04 10.14 50.544 10.14L51.072 10.14L51.072 11.64L50.472 11.64Z" fill="#023347" transform="translate(0 4)" />
  </g>
</svg>