<?xml version="1.0" encoding="utf-8"?>
<svg width="41" height="24" viewBox="0 0 41 24" fill="none" xmlns="http://www.w3.org/2000/svg">
  <g>
    <path d="M0.9 11.64L0.9 3.144L2.616 3.144L2.616 6.672L3.816 6.672L6.024 3.144L7.992 3.144L5.256 7.272L7.992 11.64L5.976 11.64L3.888 8.256L2.616 8.256L2.616 11.64L0.9 11.64ZM8.724 11.64L8.724 3.144L10.404 3.144L10.404 11.64L8.724 11.64ZM13.74 11.724Q13.308 11.724 12.906 11.61Q12.504 11.496 12.192 11.256Q11.88 11.016 11.7 10.656Q11.52 10.296 11.52 9.816Q11.52 9.168 11.784 8.778Q12.048 8.388 12.492 8.184Q12.936 7.98 13.518 7.908Q14.1 7.836 14.724 7.836L15.636 7.836Q15.636 7.488 15.51 7.218Q15.384 6.948 15.132 6.798Q14.88 6.648 14.484 6.648Q14.232 6.648 13.998 6.714Q13.764 6.78 13.608 6.9Q13.452 7.02 13.404 7.212L11.7 7.212Q11.772 6.684 12.036 6.306Q12.3 5.928 12.696 5.688Q13.092 5.448 13.566 5.334Q14.04 5.22 14.544 5.22Q15.924 5.22 16.584 6.006Q17.244 6.792 17.244 8.232L17.244 11.64L15.732 11.64L15.708 10.824Q15.408 11.244 15.03 11.436C14.778 11.564 14.536 11.644 14.304 11.676Q13.956 11.724 13.74 11.724ZM14.124 10.392Q14.544 10.392 14.892 10.224Q15.24 10.056 15.444 9.768Q15.648 9.48 15.648 9.12L15.648 8.964L14.496 8.964Q14.244 8.964 14.01 8.988Q13.776 9.012 13.59 9.078Q13.404 9.144 13.296 9.288Q13.188 9.432 13.188 9.672Q13.188 9.912 13.314 10.074Q13.44 10.236 13.656 10.314Q13.872 10.392 14.124 10.392ZM18.552 11.64L18.552 5.316L20.064 5.316L20.172 6.072Q20.412 5.712 20.712 5.526Q21.012 5.34 21.336 5.274Q21.66 5.208 21.996 5.208Q22.152 5.208 22.284 5.214Q22.416 5.22 22.476 5.22L22.476 6.84L22.08 6.84Q21.516 6.84 21.096 7.032Q20.676 7.224 20.454 7.632Q20.232 8.04 20.232 8.676L20.232 11.64L18.552 11.64ZM23.268 11.64L23.268 5.316L24.84 5.316L24.924 6.048Q25.188 5.724 25.53 5.538Q25.872 5.352 26.226 5.28Q26.58 5.208 26.868 5.208Q27.78 5.208 28.29 5.604Q28.8 6 29.022 6.666Q29.244 7.332 29.244 8.148L29.244 11.64L27.564 11.64L27.564 8.364Q27.564 8.076 27.516 7.788Q27.468 7.5 27.342 7.26Q27.216 7.02 26.988 6.876Q26.76 6.732 26.388 6.732Q25.908 6.732 25.584 6.972Q25.26 7.212 25.104 7.62Q24.948 8.028 24.948 8.52L24.948 11.64L23.268 11.64ZM32.532 11.724Q32.1 11.724 31.698 11.61Q31.296 11.496 30.984 11.256Q30.672 11.016 30.492 10.656Q30.312 10.296 30.312 9.816Q30.312 9.168 30.576 8.778Q30.84 8.388 31.284 8.184Q31.728 7.98 32.31 7.908Q32.892 7.836 33.516 7.836L34.428 7.836Q34.428 7.488 34.302 7.218Q34.176 6.948 33.924 6.798Q33.672 6.648 33.276 6.648Q33.024 6.648 32.79 6.714Q32.556 6.78 32.4 6.9Q32.244 7.02 32.196 7.212L30.492 7.212Q30.564 6.684 30.828 6.306Q31.092 5.928 31.488 5.688Q31.884 5.448 32.358 5.334Q32.832 5.22 33.336 5.22Q34.716 5.22 35.376 6.006Q36.036 6.792 36.036 8.232L36.036 11.64L34.524 11.64L34.5 10.824Q34.2 11.244 33.822 11.436C33.57 11.564 33.328 11.644 33.096 11.676Q32.748 11.724 32.532 11.724ZM32.916 10.392Q33.336 10.392 33.684 10.224Q34.032 10.056 34.236 9.768Q34.44 9.48 34.44 9.12L34.44 8.964L33.288 8.964Q33.036 8.964 32.802 8.988Q32.568 9.012 32.382 9.078Q32.196 9.144 32.088 9.288Q31.98 9.432 31.98 9.672Q31.98 9.912 32.106 10.074Q32.232 10.236 32.448 10.314Q32.664 10.392 32.916 10.392ZM38.376 11.796Q37.944 11.796 37.644 11.532Q37.344 11.268 37.344 10.776Q37.344 10.272 37.65 9.984Q37.956 9.696 38.376 9.696Q38.796 9.696 39.096 9.978Q39.396 10.26 39.396 10.764Q39.396 11.268 39.096 11.532Q38.796 11.796 38.376 11.796Z" fill="#023347" transform="translate(0 4)" />
  </g>
</svg>